<?xml version="1.0" encoding="utf-8"?>
<!-- Generator: Adobe Illustrator 15.0.0, SVG Export Plug-In . SVG Version: 6.00 Build 0)  -->
<!DOCTYPE svg PUBLIC "-//W3C//DTD SVG 1.1//EN" "http://www.w3.org/Graphics/SVG/1.1/DTD/svg11.dtd">
<svg version="1.1" id="Layer_1" xmlns="http://www.w3.org/2000/svg" xmlns:xlink="http://www.w3.org/1999/xlink" x="0px" y="0px"
	 width="79.373px" height="79.373px" viewBox="0 0 79.373 79.373" enable-background="new 0 0 79.373 79.373" xml:space="preserve">
<g>
	<g>
		<path fill="#9D9D9C" d="M39.688,79.372c-21.884,0-39.687-17.804-39.687-39.688c0-21.883,17.803-39.686,39.687-39.686
			s39.687,17.803,39.687,39.686C79.374,61.568,61.571,79.372,39.688,79.372z M39.688,5.134c-19.047,0-34.551,15.498-34.551,34.551
			c0,19.049,15.504,34.552,34.551,34.552c19.048,0,34.552-15.503,34.552-34.552C74.239,20.632,58.735,5.134,39.688,5.134z"/>
	</g>
	<g>
		<path fill="#9D9D9C" d="M39.688,9.187C22.842,9.187,9.19,22.839,9.19,39.685s13.651,30.498,30.497,30.498
			S70.19,56.53,70.19,39.685S56.533,9.187,39.688,9.187z M53.118,47.416l-3.036,8.01L26.262,44.23v-9.096l23.82-11.191l3.036,8.02
			l-17.18,7.722L53.118,47.416z"/>
	</g>
</g>
</svg>
