<?xml version="1.0" encoding="utf-8"?>
<!-- Generator: Adobe Illustrator 15.0.0, SVG Export Plug-In . SVG Version: 6.00 Build 0)  -->
<!DOCTYPE svg PUBLIC "-//W3C//DTD SVG 1.1//EN" "http://www.w3.org/Graphics/SVG/1.1/DTD/svg11.dtd">
<svg version="1.1" id="Layer_1" xmlns="http://www.w3.org/2000/svg" xmlns:xlink="http://www.w3.org/1999/xlink" x="0px" y="0px"
	 width="79.373px" height="79.373px" viewBox="0 0 79.373 79.373" enable-background="new 0 0 79.373 79.373" xml:space="preserve">
<g>
	<g>
		<path fill="#9D9D9C" d="M39.687,0C61.57,0,79.373,17.804,79.373,39.688c0,21.883-17.803,39.686-39.687,39.686S0,61.57,0,39.688
			C0,17.804,17.803,0,39.687,0z M39.687,74.238c19.047,0,34.551-15.498,34.551-34.551c0-19.049-15.504-34.552-34.551-34.552
			c-19.048,0-34.552,15.503-34.552,34.552C5.135,58.74,20.639,74.238,39.687,74.238z"/>
	</g>
	<g>
		<path fill="#9D9D9C" d="M39.687,70.186c16.846,0,30.497-13.652,30.497-30.498S56.532,9.189,39.687,9.189
			S9.184,22.842,9.184,39.688S22.841,70.186,39.687,70.186z M26.256,31.956l3.036-8.01l23.82,11.195v9.096l-23.82,11.191
			l-3.036-8.02l17.18-7.722L26.256,31.956z"/>
	</g>
</g>
</svg>
