<?xml version="1.0" encoding="utf-8"?>
<!-- Generator: Adobe Illustrator 15.0.0, SVG Export Plug-In . SVG Version: 6.00 Build 0)  -->
<!DOCTYPE svg PUBLIC "-//W3C//DTD SVG 1.1//EN" "http://www.w3.org/Graphics/SVG/1.1/DTD/svg11.dtd">
<svg version="1.1" id="Layer_1" xmlns="http://www.w3.org/2000/svg" xmlns:xlink="http://www.w3.org/1999/xlink" x="0px" y="0px"
	 width="12.643px" height="27.117px" viewBox="0 0 12.643 27.117" enable-background="new 0 0 12.643 27.117" xml:space="preserve">
<g>
	<path fill-rule="evenodd" clip-rule="evenodd" fill="#3C3C3C" d="M8.437,27.117c-1.686,0-3.372,0-5.062,0c0-4.516,0-9.032,0-13.543
		c-1.126,0-2.248,0-3.375,0c0-1.559,0-3.119,0-4.676c1.127,0,2.25,0,3.375,0c0.011-2.724-0.162-5.317,0.823-6.925
		c1.39-2.263,4.85-2.02,8.437-1.902c-0.029,1.529,0.058,3.175-0.042,4.633c-1.41,0.188-3.127-0.412-3.851,0.433
		C8.085,5.9,8.627,7.55,8.437,8.898c1.387,0.029,2.887-0.058,4.198,0.044c-0.176,1.542-0.288,3.143-0.521,4.632
		c-1.224,0-2.449,0-3.678,0C8.437,18.084,8.437,22.601,8.437,27.117z"/>
</g>
</svg>
