<?xml version="1.0" encoding="utf-8"?>
<!-- Generator: Adobe Illustrator 15.0.0, SVG Export Plug-In . SVG Version: 6.00 Build 0)  -->
<!DOCTYPE svg PUBLIC "-//W3C//DTD SVG 1.1//EN" "http://www.w3.org/Graphics/SVG/1.1/DTD/svg11.dtd">
<svg version="1.1" id="Layer_1" xmlns="http://www.w3.org/2000/svg" xmlns:xlink="http://www.w3.org/1999/xlink" x="0px" y="0px"
	 width="29.469px" height="29.469px" viewBox="0 0 29.469 29.469" enable-background="new 0 0 29.469 29.469" xml:space="preserve">
<path fill-rule="evenodd" clip-rule="evenodd" fill="#FFFFFF" d="M14.734,0C6.597,0,0,6.596,0,14.734
	c0,8.137,6.597,14.734,14.734,14.734c8.139,0,14.734-6.598,14.734-14.734C29.469,6.596,22.873,0,14.734,0z M16.077,11.779
	c0.88,0.019,1.829-0.036,2.661,0.027c-0.111,0.978-0.184,1.993-0.33,2.938c-0.777,0-1.554,0-2.331,0c0,2.86,0,5.724,0,8.587
	c-1.069,0-2.14,0-3.21,0c0-2.863,0-5.727,0-8.587c-0.715,0-1.426,0-2.141,0c0-0.988,0-1.979,0-2.965c0.715,0,1.426,0,2.141,0
	c0.006-1.727-0.104-3.371,0.521-4.391c0.881-1.436,3.074-1.281,5.35-1.207c-0.019,0.97,0.037,2.013-0.027,2.938
	c-0.895,0.12-1.982-0.261-2.441,0.275C15.854,9.877,16.195,10.925,16.077,11.779z"/>
</svg>
