<?xml version="1.0" encoding="utf-8"?>
<!-- Generator: Adobe Illustrator 15.0.0, SVG Export Plug-In . SVG Version: 6.00 Build 0)  -->
<!DOCTYPE svg PUBLIC "-//W3C//DTD SVG 1.1//EN" "http://www.w3.org/Graphics/SVG/1.1/DTD/svg11.dtd">
<svg version="1.1" id="Layer_1" xmlns="http://www.w3.org/2000/svg" xmlns:xlink="http://www.w3.org/1999/xlink" x="0px" y="0px"
	 width="29.469px" height="29.469px" viewBox="0 0 29.469 29.469" enable-background="new 0 0 29.469 29.469" xml:space="preserve">
<path fill-rule="evenodd" clip-rule="evenodd" fill="#FFFFFF" d="M14.734,0C6.598,0,0,6.596,0,14.734
	c0,8.137,6.598,14.734,14.734,14.734c8.139,0,14.734-6.598,14.734-14.734C29.469,6.596,22.873,0,14.734,0z M7.973,7.972h13.522
	c0.393,0,0.755,0.107,1.077,0.285l-7.838,6.854L6.898,8.257C7.22,8.079,7.583,7.972,7.973,7.972z M5.719,19.242v-9.017
	c0-0.44,0.133-0.848,0.353-1.197l5.63,4.926l-5.695,6.37C5.83,20.003,5.719,19.637,5.719,19.242z M21.495,21.497H7.973
	c-0.439,0-0.844-0.132-1.188-0.348l5.765-6.452l1.813,1.588c0.108,0.094,0.238,0.138,0.371,0.138s0.265-0.044,0.371-0.137
	l1.814-1.589l5.766,6.452C22.339,21.365,21.935,21.497,21.495,21.497z M23.75,19.242c0,0.395-0.11,0.761-0.289,1.082l-5.691-6.37
	l5.629-4.926c0.219,0.35,0.352,0.757,0.352,1.197V19.242z"/>
</svg>
