<?xml version="1.0" encoding="utf-8"?>
<!-- Generator: Adobe Illustrator 15.0.0, SVG Export Plug-In . SVG Version: 6.00 Build 0)  -->
<!DOCTYPE svg PUBLIC "-//W3C//DTD SVG 1.1//EN" "http://www.w3.org/Graphics/SVG/1.1/DTD/svg11.dtd">
<svg version="1.1" id="Layer_1" xmlns="http://www.w3.org/2000/svg" xmlns:xlink="http://www.w3.org/1999/xlink" x="0px" y="0px"
	 width="23.48px" height="17.612px" viewBox="0 0 23.48 17.612" enable-background="new 0 0 23.48 17.612" xml:space="preserve">
<g>
	<path fill="#3C3C3C" d="M23.481,14.676c0,0.514-0.145,0.99-0.379,1.41L15.69,7.792l7.332-6.416
		c0.285,0.455,0.459,0.986,0.459,1.559V14.676z M11.739,9.297l10.207-8.926C21.526,0.141,21.054,0,20.544,0H2.933
		C2.427,0,1.954,0.141,1.536,0.372L11.739,9.297z M14.585,8.758l-2.363,2.068c-0.137,0.121-0.311,0.18-0.482,0.18
		s-0.344-0.059-0.482-0.18L8.896,8.758l-7.51,8.402c0.451,0.281,0.979,0.451,1.547,0.451h17.611c0.57,0,1.098-0.17,1.547-0.451
		L14.585,8.758z M0.458,1.375C0.173,1.831,0.001,2.362,0.001,2.934v11.742c0,0.514,0.145,0.99,0.375,1.41l7.412-8.295L0.458,1.375z
		 M0.458,1.375"/>
</g>
</svg>
