<?xml version="1.0" encoding="utf-8"?>
<!-- Generator: Adobe Illustrator 15.0.0, SVG Export Plug-In . SVG Version: 6.00 Build 0)  -->
<!DOCTYPE svg PUBLIC "-//W3C//DTD SVG 1.1//EN" "http://www.w3.org/Graphics/SVG/1.1/DTD/svg11.dtd">
<svg version="1.1" id="Layer_1" xmlns="http://www.w3.org/2000/svg" xmlns:xlink="http://www.w3.org/1999/xlink" x="0px" y="0px"
	 width="111.835px" height="86.079px" viewBox="0 0 111.835 86.079" enable-background="new 0 0 111.835 86.079"
	 xml:space="preserve">
<g>
	<path fill="#FFFFFF" d="M11.826,74.082c0,0,1.998-1.278,1.998-4.259s-1.736-6.092-6.896-6.092S0,68.349,0,70.117s0,15.479,0,15.479
		s10.417,0,10.843,0s3.963-0.77,3.963-5.552C14.807,75.261,11.826,74.082,11.826,74.082z M3.996,69.608
		c0-1.291,1.745-3.545,3.973-2.808s2.621,4.62,1.024,5.7c-1.598,1.08-2.917,0.877-4.997,0.894
		C3.996,73.395,3.996,70.899,3.996,69.608z M8.419,82.958c-1.474,0-4.423,0-4.423,0v-7.107c0,0,2.654,0,3.833,0
		c1.179,0,3.275,1.375,3.275,3.537S9.893,82.958,8.419,82.958z"/>
	<path fill="#FFFFFF" d="M86.382,74.688c0,0.024,0-0.27,0-0.27s2.113-0.983,2.113-4.792c0-3.807-2.441-5.962-6.847-5.962
		s-6.888,3.212-6.888,6.698c0,3.49,0,15.111,0,15.111h3.759v-9.386c0,0,3.772-0.724,5.701,1.204
		c1.325,1.327,0.761,8.182,0.761,8.182h3.711c0,0,0-6.167,0-7.051C88.692,77.538,88.323,75.793,86.382,74.688z M83.739,72.622
		c-1.598,1.08-2.916,0.876-4.996,0.893c0,0,0-2.494,0-3.784c0-1.293,1.744-3.544,3.971-2.808
		C84.942,67.659,85.337,71.541,83.739,72.622z"/>
	<rect x="39.654" y="17.439" fill="#FFFFFF" width="1.113" height="37.019"/>
	<rect x="49.055" y="14.293" fill="#FFFFFF" width="1.495" height="36.968"/>
	<path fill="#FFFFFF" d="M51.332,2.751c1.589,0,44.681,24.225,47.581,25.748c2.432,1.252,3.194-0.32,3.341-0.467
		c0.148-0.146,1.057-2.358-0.688-3.391C99.821,23.609,54.37,0.86,53.83,0.59C53.288,0.319,52.56,0,52.019,0
		c-0.54,0-1.506,0.43-1.851,0.627C49.825,0.823,5.11,22.996,3.439,23.831c-1.67,0.835-3.145,2.654-2.457,3.784
		c0.688,1.13,2.621,1.26,5.176-0.115C8.714,26.125,50.734,2.912,50.931,2.837C51.127,2.764,51.332,2.751,51.332,2.751z"/>
	<g>
		<path fill-rule="evenodd" clip-rule="evenodd" fill="#FFFFFF" d="M16.108,75.028c0.008,7.297,5.09,12.215,13.955,10.811
			c0-0.918,0-1.834,0-2.752c-13.44,2.557-12.603-18.398,0-16.117c0-0.918,0-1.834,0-2.752C22.169,63.282,16.1,67.903,16.108,75.028z
			"/>
		<path fill-rule="evenodd" clip-rule="evenodd" fill="#FFFFFF" d="M30.063,64.218c0,0.918,0,1.834,0,2.752
			c-12.603-2.281-13.44,18.674,0,16.117c0,0.918,0,1.834,0,2.752c-8.865,1.404-13.947-3.514-13.955-10.811
			C16.1,67.903,22.169,63.282,30.063,64.218z"/>
	</g>
	<path fill-rule="evenodd" clip-rule="evenodd" fill="#FFFFFF" d="M42.258,63.664c-4.979,0-6.748,4.685-6.748,7.011
		s0,14.741,0,14.741h3.865v-9.729h7.076v9.729h3.734c0,0,0-12.679,0-14.741S48.548,63.664,42.258,63.664z M46.41,72.796h-7.149
		c0,0,0-0.59,0-2.751c0-2.163,1.4-3.626,3.624-3.626s3.525,1.979,3.525,3.527C46.41,71.493,46.41,72.796,46.41,72.796z"/>
	<path fill="#FFFFFF" d="M67.932,69.554h1.253c0,0,1.523-1.5,1.646-1.941c0.123-0.443-2.702-3.948-8.968-3.948
		c-6.265,0-10.343,5.716-10.343,10.343S52.838,85.71,62.403,85.71c9.565,0,10.482-7.238,10.482-12.315
		c0.033,0-10.684-0.132-10.684-0.132v2.85h6.852c0,0-1.049,7.142-6.126,7.142s-7.469-4.095-7.469-8.222
		c0-4.129,2.719-8.613,6.616-8.613C65.975,66.419,67.932,69.554,67.932,69.554z"/>
	<path fill="#FFFFFF" d="M100.877,63.664c-7.271,0-10.368,5.767-10.368,11.958c0,4.078,2.998,10.088,11.106,10.088
		c8.106,0,10.22-6.06,10.22-11.563C111.835,68.644,108.149,63.664,100.877,63.664z M101.197,83.14c-3.612,0-6.757-3.932-6.757-7.912
		c0-5.307,2.801-9.041,6.732-9.041c3.931,0,6.779,3.979,6.779,9.041C107.952,80.29,104.81,83.14,101.197,83.14z"/>
	<path fill="#FFFFFF" d="M63.665,43.191c4.494-1.375,10.043-2.705,15.02-1.571c6.017-2.417,12.748-5.134,12.693-5.16
		c-2.801-1.917-8.845-3.244-19.459-0.885c-2.741,0.609-5.568,1.695-8.254,2.969V43.191z"/>
	<path fill="#FFFFFF" d="M58.563,44.683v-4.158c-6.451,3.457-11.498,7.48-11.498,7.48l5.583-0.583
		C54.771,46.317,56.837,45.336,58.563,44.683z"/>
	<path fill="#FFFFFF" d="M44.626,53.483c-2.505,1.508-4.219,2.605-4.219,2.605s5.492-1.973,12.556-4.131
		C50.049,51.53,47.082,52.371,44.626,53.483z"/>
	<path fill="#FFFFFF" d="M83.713,45.581c-5.987-5.446-14.654-3.552-21.13-1.572V17.175h-2.752v27.738
		c-1.258,0.474-2.697,1.125-4.207,1.871c1.66,0.543,3.189,1.391,4.571,2.398c3.219-0.883,6.505-1.702,9.562-2.323
		c12.58-2.556,17.443,3.882,17.443,3.882S86.71,48.776,83.713,45.581z"/>
	<path fill="#FFFFFF" d="M37.974,56.448c0,0,7.912-6.682,15.085-4.863s14.594,8.451,14.594,8.451s-7.225-14.938-18.721-13.611
		C43.969,47.211,37.974,56.448,37.974,56.448z"/>
</g>
</svg>
