<?xml version="1.0" encoding="utf-8"?>
<!-- Generator: Adobe Illustrator 15.0.0, SVG Export Plug-In . SVG Version: 6.00 Build 0)  -->
<!DOCTYPE svg PUBLIC "-//W3C//DTD SVG 1.1//EN" "http://www.w3.org/Graphics/SVG/1.1/DTD/svg11.dtd">
<svg version="1.1" id="Layer_1" xmlns="http://www.w3.org/2000/svg" xmlns:xlink="http://www.w3.org/1999/xlink" x="0px" y="0px"
	 width="193.988px" height="149.311px" viewBox="0 0 193.988 149.311" enable-background="new 0 0 193.988 149.311"
	 xml:space="preserve">
<g>
	<path fill="#006A3F" d="M20.513,128.502c0,0,3.469-2.217,3.469-7.388c0-5.176-3.021-10.573-11.964-10.573
		C3.067,110.541,0,118.557,0,121.63c0,3.063,0,26.846,0,26.846s18.068,0,18.811,0c0.738,0,6.872-1.336,6.872-9.639
		C25.683,130.545,20.513,128.502,20.513,128.502z M6.931,120.743c0-2.24,3.025-6.152,6.89-4.877
		c3.865,1.289,4.542,8.017,1.779,9.893c-2.773,1.875-5.063,1.521-8.669,1.545C6.931,127.304,6.931,122.979,6.931,120.743z
		 M14.605,143.899c-2.564,0-7.675,0-7.675,0v-12.33c0,0,4.606,0,6.645,0c2.049,0,5.685,2.385,5.685,6.135
		S17.158,143.899,14.605,143.899z"/>
	<path fill="#96B635" d="M149.842,129.55c0,0.043,0-0.473,0-0.473s3.66-1.701,3.66-8.309c0-6.604-4.229-10.336-11.874-10.336
		c-7.638,0-11.952,5.566-11.952,11.617c0,6.057,0,26.211,0,26.211h6.53v-16.277c0,0,6.535-1.26,9.878,2.084
		c2.308,2.301,1.325,14.193,1.325,14.193h6.44c0,0,0-10.7,0-12.229C153.85,134.493,153.209,131.468,149.842,129.55z
		 M145.258,125.968c-2.773,1.875-5.063,1.521-8.675,1.553c0,0,0-4.332,0-6.566c0-2.242,3.026-6.147,6.896-4.877
		C147.343,117.364,148.026,124.093,145.258,125.968z"/>
	<rect x="68.782" y="30.758" fill="#96B635" width="1.935" height="64.211"/>
	<rect x="85.084" y="24.791" fill="#97B632" width="2.6" height="64.128"/>
	<path fill="#006A3F" d="M89.038,4.769c2.756,0,77.507,42.021,82.539,44.663c4.212,2.175,5.535-0.551,5.787-0.809
		c0.265-0.257,1.833-4.092-1.192-5.883c-3.019-1.785-81.867-41.254-82.797-41.721C92.435,0.552,91.172,0,90.236,0
		c-0.939,0-2.617,0.743-3.218,1.085C86.42,1.42,8.865,39.882,5.967,41.332c-2.899,1.456-5.452,4.602-4.267,6.566
		c1.192,1.953,4.554,2.187,8.981-0.198c4.434-2.39,77.319-42.656,77.661-42.782C88.691,4.792,89.038,4.769,89.038,4.769z"/>
	<g>
		<path fill-rule="evenodd" clip-rule="evenodd" fill="#006A3F" d="M27.941,130.138c0.012,12.665,8.83,21.189,24.204,18.758
			c0-1.588,0-3.182,0-4.775c-23.317,4.434-21.856-31.914,0-27.953c0-1.588,0-3.188,0-4.775
			C38.456,109.769,27.929,117.784,27.941,130.138z"/>
		<path fill-rule="evenodd" clip-rule="evenodd" fill="#006A3F" d="M52.146,111.392c0,1.588,0,3.188,0,4.775
			c-21.856-3.961-23.317,32.387,0,27.953c0,1.594,0,3.188,0,4.775c-15.374,2.432-24.192-6.093-24.204-18.758
			C27.929,117.784,38.456,109.769,52.146,111.392z"/>
	</g>
	<path fill-rule="evenodd" clip-rule="evenodd" fill="#96B635" d="M73.3,110.433c-8.633,0-11.713,8.124-11.713,12.156
		c0,4.038,0,25.569,0,25.569h6.717v-16.876h12.27v16.876h6.477c0,0,0-21.987,0-25.569S84.215,110.433,73.3,110.433z M80.501,126.273
		H68.1c0,0,0-1.024,0-4.775c0-3.75,2.426-6.284,6.291-6.284c3.852,0,6.11,3.427,6.11,6.111
		C80.501,124.015,80.501,126.273,80.501,126.273z"/>
	<path fill="#96B635" d="M117.831,120.642h2.175c0,0,2.643-2.594,2.857-3.367c0.216-0.761-4.69-6.842-15.559-6.842
		c-10.861,0-17.938,9.91-17.938,17.938c0,8.028,2.29,20.304,18.878,20.304c16.596,0,18.184-12.558,18.184-21.37
		c0.06,0-18.53-0.222-18.53-0.222v4.942h11.88c0,0-1.815,12.391-10.623,12.391c-8.806,0-12.958-7.105-12.958-14.266
		c0-7.166,4.721-14.936,11.479-14.936C114.439,115.214,117.831,120.642,117.831,120.642z"/>
	<path fill="#96B635" d="M174.986,110.433c-12.623,0-17.986,9.999-17.986,20.742c0,7.074,5.201,17.499,19.262,17.499
		s17.727-10.515,17.727-20.063C193.988,119.065,187.598,110.433,174.986,110.433z M175.536,144.21
		c-6.265,0-11.718-6.816-11.718-13.725c0-9.203,4.854-15.679,11.678-15.679c6.816,0,11.76,6.901,11.76,15.679
		C187.256,139.268,181.803,144.21,175.536,144.21z"/>
	<path fill="#006A3F" d="M81.909,83.952c0,0,20.627-16.451,39.032-20.543c18.415-4.092,28.9-1.792,33.758,1.534
		c0.175,0.084-38.019,15.367-38.019,15.367L81.909,83.952z"/>
	<path fill="#97B632" d="M143.281,79.351c-10.389-9.454-25.427-6.165-36.653-2.731V30.075h-4.781v48.115
		c-11.903,4.493-33.064,18.039-33.064,18.039s28.47-10.233,50.283-14.666c21.825-4.427,30.26,6.739,30.26,6.739
		S148.476,84.887,143.281,79.351z"/>
	<path fill="#006A3F" d="M66.14,97.847c0,0,13.721-11.6,26.163-8.442c12.45,3.157,25.318,14.661,25.318,14.661
		S105.088,78.159,85.145,80.46C76.541,81.819,66.14,97.847,66.14,97.847z"/>
</g>
</svg>
