<?xml version="1.0" encoding="utf-8"?>
<!-- Generator: Adobe Illustrator 15.0.0, SVG Export Plug-In . SVG Version: 6.00 Build 0)  -->
<!DOCTYPE svg PUBLIC "-//W3C//DTD SVG 1.1//EN" "http://www.w3.org/Graphics/SVG/1.1/DTD/svg11.dtd">
<svg version="1.1" id="Layer_1" xmlns="http://www.w3.org/2000/svg" xmlns:xlink="http://www.w3.org/1999/xlink" x="0px" y="0px"
	 width="15.629px" height="107.094px" viewBox="0 0 15.629 107.094" enable-background="new 0 0 15.629 107.094"
	 xml:space="preserve">
<g>
	<path fill="none" stroke="#74AF27" stroke-width="3.166" stroke-miterlimit="10" d="M14.046,7.816c0,3.439-2.789,6.231-6.229,6.231
		c-3.441,0-6.234-2.792-6.234-6.231c0-3.442,2.793-6.233,6.234-6.233C11.257,1.583,14.046,4.374,14.046,7.816z"/>
	<path fill="#74AF27" stroke="#74AF27" stroke-width="3.166" stroke-miterlimit="10" d="M14.046,38.308
		c0,3.438-2.789,6.226-6.229,6.226c-3.441,0-6.234-2.788-6.234-6.226c0-3.445,2.793-6.233,6.234-6.233
		C11.257,32.075,14.046,34.863,14.046,38.308z"/>
	<circle fill="none" stroke="#74AF27" stroke-width="3.166" stroke-miterlimit="10" cx="7.814" cy="68.792" r="6.231"/>
	<circle fill="none" stroke="#74AF27" stroke-width="3.166" stroke-miterlimit="10" cx="7.814" cy="99.281" r="6.231"/>
</g>
</svg>
